<svg width="24" height="26" viewBox="0 0 24 26" fill="none" xmlns="http://www.w3.org/2000/svg">
<path d="M23.71 1.21621C23.575 1.07651 23.4045 0.979791 23.2185 0.937417C23.0325 0.895044 22.8388 0.908781 22.66 0.977014L0.660001 9.29701C0.470269 9.37186 0.306921 9.50496 0.191652 9.67865C0.0763829 9.85233 0.0146484 10.0584 0.0146484 10.2694C0.0146484 10.4805 0.0763829 10.6865 0.191652 10.8602C0.306921 11.0339 0.470269 11.167 0.660001 11.2418L10.26 15.2354L14.1 25.2194C14.1721 25.4081 14.2958 25.5706 14.4557 25.6871C14.6157 25.8035 14.8049 25.8687 15 25.8746C15.2021 25.8703 15.3982 25.8024 15.5624 25.6799C15.7266 25.5573 15.8513 25.3859 15.92 25.1882L23.92 2.30821C23.9881 2.12421 24.0046 1.92386 23.9674 1.73052C23.9302 1.53718 23.8409 1.35881 23.71 1.21621ZM15 21.9226L12.21 14.6426L17 9.66101L15.59 8.19461L10.76 13.2178L3.8 10.2746L21.33 3.69141L15 21.9226Z" fill="#8EC2F2"/>
</svg>
