<svg width="49" height="48" viewBox="0 0 49 48" fill="none" xmlns="http://www.w3.org/2000/svg">
<path d="M13.1214 16.9828C12.7862 16.6477 12.2414 16.6477 11.9063 16.9828C11.5703 17.3188 11.5703 17.8628 11.9063 18.198C12.2415 18.534 12.7863 18.534 13.1214 18.198C13.4573 17.8628 13.4573 17.3188 13.1214 16.9828Z" fill="#D0A144"/>
<path d="M24.7593 40.4759C25.1382 39.9627 25.343 39.3444 25.343 38.6942C25.343 37.0358 23.9938 35.6865 22.3353 35.6865H7.72639C6.92262 35.6865 6.16731 35.9993 5.59952 36.5673C5.03148 37.1352 4.71866 37.8905 4.71866 38.6942C4.71866 39.3602 4.9366 39.976 5.30433 40.4749C3.93595 41.1943 3 42.6295 3 44.2799V45.1393C3 45.6139 3.38483 45.9987 3.85938 45.9987H26.2023C26.6768 45.9987 27.0616 45.6139 27.0616 45.1393V44.2799C27.0616 42.6303 26.1266 41.1957 24.7593 40.4759ZM6.81477 37.7825C7.05805 37.5391 7.38187 37.4051 7.72639 37.4051H22.3353C23.046 37.4051 23.6242 37.9834 23.6242 38.6941C23.6242 39.0387 23.4902 39.3624 23.2468 39.6058C23.0035 39.8492 22.6797 39.9831 22.3352 39.9831H7.72639C7.0156 39.9831 6.43741 39.4049 6.43741 38.6942C6.43741 38.3496 6.57139 38.0258 6.81477 37.7825ZM4.71866 44.2799C4.71866 42.8584 5.87521 41.7019 7.2967 41.7019H7.72639H22.3353H22.7649C24.1864 41.7019 25.343 42.8584 25.343 44.2799H4.71866Z" fill="#D0A144"/>
<path d="M46.2003 38.1043C45.9085 37.652 45.5603 37.2521 45.1652 36.9155L41.1498 33.4133C41.1185 33.3662 41.0822 33.3216 41.0407 33.28C40.9709 33.2104 40.8919 33.156 40.8078 33.1152L38.3795 30.9973L27.1397 21.1926C27.5998 20.7116 27.8532 20.0826 27.8532 19.4138C27.8532 18.7247 27.585 18.0772 27.0975 17.5897C26.8848 17.3774 26.6432 17.2104 26.3849 17.0881L27.4248 16.0483C27.7154 16.1255 28.0141 16.1651 28.313 16.1651C29.193 16.165 30.0732 15.83 30.7432 15.16C31.3927 14.5106 31.7504 13.6474 31.7504 12.7293C31.7504 11.8112 31.3927 10.948 30.7433 10.2986L23.4516 3.0071C22.8022 2.35767 21.9389 2 21.0206 2C20.1027 2 19.2396 2.35767 18.5902 3.0071C17.6927 3.90463 17.3973 5.179 17.702 6.32558L7.32719 16.7003C7.0405 16.6241 6.74221 16.5839 6.43748 16.5839C5.51898 16.5839 4.65608 16.9413 4.00716 17.5901C2.66688 18.9304 2.66688 21.1112 4.00716 22.4516L11.2987 29.7432C11.9689 30.4133 12.8492 30.7484 13.7294 30.7484C14.6098 30.7484 15.49 30.4133 16.1603 29.7432C17.0578 28.8456 17.3533 27.5713 17.0485 26.4247L18.0862 25.3869C18.2109 25.6473 18.3801 25.8876 18.5903 26.0977C19.0772 26.5847 19.7246 26.8529 20.4135 26.8529C21.0817 26.8529 21.7104 26.6 22.1921 26.1404L34.1637 39.895C34.1967 39.9466 34.2352 39.9956 34.2802 40.0407C34.2956 40.056 34.3119 40.0701 34.3281 40.084L37.8955 44.1827C37.9842 44.2873 38.079 44.3903 38.1774 44.4887C39.1571 45.4681 40.4513 45.9997 41.81 45.9997C42.0495 45.9997 42.2912 45.9832 42.5333 45.9496C44.1514 45.7257 45.5499 44.7577 46.3699 43.2935C47.2682 41.6888 47.2013 39.6515 46.2003 38.1043ZM19.8057 4.22243C20.1304 3.89767 20.562 3.71875 21.0206 3.71875C21.4799 3.71875 21.9117 3.89767 22.2364 4.22243L29.528 11.514C29.8528 11.8387 30.0316 12.2704 30.0316 12.7294C30.0316 13.1884 29.8528 13.62 29.5279 13.9448C28.8581 14.6149 27.7679 14.6149 27.098 13.9448L19.8061 6.65291C19.8059 6.65274 19.8058 6.65266 19.8057 6.65248C19.1356 5.98252 19.1356 4.8924 19.8057 4.22243ZM14.9449 28.5279C14.2748 29.198 13.1842 29.1981 12.514 28.5279L5.22249 21.2363C4.55227 20.5661 4.55227 19.4757 5.22249 18.8054C5.54665 18.4812 5.97823 18.3026 6.43748 18.3026C6.89664 18.3026 7.32796 18.4811 7.65203 18.8051L14.9449 26.0979C15.615 26.7678 15.615 27.858 14.9449 28.5279ZM18.5631 22.4796L16.1602 24.8826L8.86787 17.5903L18.5902 7.86773L25.8825 15.16L23.4752 17.5674C23.4674 17.5748 23.4597 17.582 23.4515 17.5902L18.5927 22.449C18.5827 22.4589 18.573 22.4692 18.5631 22.4796ZM21.6316 24.2723C21.6299 24.2741 21.6282 24.2757 21.6265 24.2774L21.0213 24.8826C20.859 25.0448 20.6432 25.1342 20.4134 25.1342C20.1837 25.1342 19.9678 25.0448 19.8056 24.8825C19.6431 24.7201 19.5536 24.504 19.5536 24.2741C19.5536 24.0492 19.6395 23.8375 19.7953 23.6778L24.6766 18.7965C25.0111 18.4711 25.552 18.4752 25.8826 18.8054C26.0451 18.9678 26.1345 19.1839 26.1345 19.4138C26.1345 19.6435 26.0453 19.8589 25.8826 20.0213L25.2809 20.6229C25.2768 20.627 25.2727 20.6311 25.2686 20.6352L21.6316 24.2723ZM23.4112 24.9233L25.9228 22.4117L36.5569 31.6874L32.6764 35.5679L23.4112 24.9233ZM33.8075 36.8674L37.855 32.8198L39.1533 33.9522L34.9385 38.1671L33.8075 36.8674ZM44.8704 42.4539C44.3157 43.4441 43.3781 44.0977 42.2977 44.2472C41.2199 44.3964 40.1609 44.0414 39.3924 43.2733C39.3264 43.2073 39.2631 43.1385 39.2042 43.0687C39.2014 43.0654 39.1987 43.0621 39.1958 43.059L36.0694 39.4666L40.4515 35.0845L44.0393 38.2141C44.042 38.2165 44.0448 38.2188 44.0476 38.2212C44.3162 38.4495 44.5545 38.7238 44.7567 39.0371C45.4065 40.0413 45.4521 41.4145 44.8704 42.4539Z" fill="#D0A144"/>
<path d="M19.1981 10.906C18.8625 10.5704 18.3185 10.5704 17.9828 10.906L14.3367 14.5521C14.0011 14.8877 14.0011 15.4319 14.3367 15.7674C14.5045 15.9352 14.7244 16.0191 14.9443 16.0191C15.1642 16.0191 15.3841 15.9351 15.552 15.7674L19.1981 12.1212C19.5337 11.7857 19.5337 11.2417 19.1981 10.906Z" fill="#D0A144"/>
</svg>
