<svg width="41" height="38" viewBox="0 0 41 38" fill="none" xmlns="http://www.w3.org/2000/svg">
<g clip-path="url(#clip0_1082_11)">
<path d="M20.3637 18.05C24.0537 18.05 26.9237 15.0643 26.9237 11.4C26.9237 7.73574 23.917 4.88574 20.227 4.88574C16.537 4.88574 13.667 7.87146 13.667 11.4C13.667 15.0643 16.6737 18.05 20.3637 18.05ZM20.227 7.60003C20.3637 7.60003 20.3637 7.60003 20.227 7.60003C22.4137 7.60003 24.1903 9.36431 24.1903 11.5357C24.1903 13.7072 22.4137 15.3357 20.227 15.3357C18.0403 15.3357 16.4003 13.5715 16.4003 11.5357C16.4003 9.36431 18.177 7.60003 20.227 7.60003Z" fill="#D0A144"/>
<path d="M40.5902 17.2356C37.9935 14.9284 34.5769 13.707 31.0235 13.8427H29.9302C29.6569 14.9284 29.2469 15.8784 28.7002 16.6927C29.5202 16.557 30.2035 16.557 31.0235 16.557C33.6202 16.4213 36.2169 17.2356 38.2669 18.7284V28.4999H41.0002V17.6427L40.5902 17.2356Z" fill="#D0A144"/>
<path d="M27.8801 5.15723C28.5635 3.52866 30.4768 2.71437 32.2535 3.39294C33.8935 4.07151 34.7135 5.97151 34.0301 7.7358C33.4835 8.95723 32.2535 9.77151 31.0235 9.77151C30.7501 9.77151 30.3401 9.77151 30.0668 9.6358C30.2035 10.3144 30.2035 10.9929 30.2035 11.5358V12.3501C30.4768 12.3501 30.7501 12.4858 31.0235 12.4858C34.4401 12.4858 37.1735 9.77151 37.1735 6.51437C37.1735 3.12151 34.4401 0.407227 31.1601 0.407227C28.9735 0.407227 27.0601 1.49294 25.9668 3.39294C26.6501 3.80008 27.3335 4.34294 27.8801 5.15723Z" fill="#D0A144"/>
<path d="M12.3 16.8285C11.7533 16.0142 11.3433 15.0642 11.07 13.9785H9.97667C6.42333 13.8428 3.00667 15.0642 0.41 17.2356L0 17.6428V28.4999H2.73333V18.7285C4.92 17.2356 7.38 16.4214 9.97667 16.5571C10.7967 16.5571 11.6167 16.6928 12.3 16.8285Z" fill="#D0A144"/>
<path d="M9.97661 12.3499C10.2499 12.3499 10.5233 12.3499 10.7966 12.2142V11.3999C10.7966 10.7214 10.7966 10.0428 10.9333 9.49994C10.6599 9.63565 10.2499 9.63565 9.97661 9.63565C8.19994 9.63565 6.69661 8.14279 6.69661 6.37851C6.69661 4.61422 8.19994 3.12137 9.97661 3.12137C11.3433 3.12137 12.5733 3.93565 13.1199 5.15708C13.6666 4.47851 14.4866 3.79994 15.1699 3.25708C13.3933 0.407081 9.70328 -0.542919 6.83328 1.22137C3.96328 2.98565 3.00661 6.64994 4.78328 9.49994C5.87661 11.2642 7.78994 12.3499 9.97661 12.3499Z" fill="#D0A144"/>
<path d="M31.5697 25.3783L31.2964 24.9712C28.5631 21.9855 24.7364 20.2212 20.6364 20.3569C16.5364 20.2212 12.5731 21.9855 9.83974 24.9712L9.56641 25.3783V35.6926C9.56641 36.9141 10.5231 37.9998 11.8897 37.9998H29.3831C30.6131 37.9998 31.7064 36.9141 31.7064 35.6926V25.3783H31.5697ZM28.8364 35.2855H12.2997V26.3283C14.4864 24.1569 17.4931 23.0712 20.6364 23.0712C23.6431 22.9355 26.6497 24.1569 28.8364 26.3283V35.2855Z" fill="#D0A144"/>
</g>
<defs>
<clipPath id="clip0_1082_11">
<rect width="41" height="38" fill="white"/>
</clipPath>
</defs>
</svg>
